<svg id="_レイヤー_1" data-name="レイヤー 1" xmlns="http://www.w3.org/2000/svg" viewBox="0 0 300 300"><defs><style>.cls-2{stroke-width:0;fill:#fff}</style></defs><circle cx="150" cy="150" r="141.25" style="stroke-width:0;fill:#725f4e"/><path class="cls-2" d="M155.73 88.3c7.18 0 13-5.82 13-13s-5.82-13-13-13-13 5.82-13 13 5.82 13 13 13ZM185.37 208.41h-31.22v-22.73h-31.21v-22.74H91.72V140.2H65.13v9.27h17.32v22.74h31.22v22.74h31.21v22.73h31.23v22.74H216v-9.26l-30.63-.01v-22.74z"/><path class="cls-2" d="M208.1 117.51c-1.28-5.37-7.27-12.41-9.08-15.31a7.889 7.889 0 0 0-4.19-3.3l-16.31-7.61a19.007 19.007 0 0 0-18.13 1.14l-25.07 15.79-14.68-6.89a4.84 4.84 0 0 0-6.51 1.71l-.19.3a4.87 4.87 0 0 0-.56 3.69 4.884 4.884 0 0 0 2.22 3l17.49 10.44a8.332 8.332 0 0 0 7.2.64l10.36-5.58 4.91 19.81-16.33-.08a9.24 9.24 0 0 0-7.12 3.33 9.18 9.18 0 0 0-1.94 7.61l5.49 28.28a5.967 5.967 0 0 0 6.73 4.76l.24-.03a5.96 5.96 0 0 0 5.05-6.44l-1.86-20.26 24.64.57c3.54.08 6.92-1.45 9.2-4.15 2.28-2.7 3.21-6.3 2.53-9.77l-.63-3.2-5.07-28.6 13.06 1.93s9.47 10.98 9.55 11.08c1.39 1.61 3.61 3.2 5.83 3.13 3.21-.09 3.78-3.45 3.17-5.98Z"/><path class="cls-2" d="M192.84 196.18a5.862 5.862 0 0 0 8.15.31l.17-.15c2.35-2.11 2.6-5.7.58-8.12l-13.46-18.07-3.77-19.13c-.29.42-.59.83-.92 1.23-3.2 3.8-7.9 5.99-12.87 5.99l-2.29-.05 4.49 14.54c1.16 2.4 2.67 4.63 4.48 6.6l15.43 16.87Z"/></svg>