<svg id="_レイヤー_1" data-name="レイヤー 1" xmlns="http://www.w3.org/2000/svg" viewBox="0 0 300 300"><defs><style>.cls-2{stroke-width:0;fill:#fff}</style></defs><circle cx="150" cy="150" r="141.25" style="stroke-width:0;fill:#725f4e"/><path class="cls-2" d="M112.78 212.94c-8.61 0-15.59-6.96-15.59-15.59v-76.51h24.13c7.18 0 12.98-5.8 12.98-12.99V83.72h49.04c8.61 0 15.57 6.96 15.57 15.59v37.06c3 1.82 5.83 4.04 8.36 6.57.27.27.56.57.81.86V99.31c0-13.68-11.09-24.77-24.74-24.77h-52.83l-2.71 2.68-37.11 37.11-2.68 2.71v80.3c0 13.65 11.12 24.77 24.76 24.77h52.83s-9.02-7.79-11.51-9.17h-41.32Z"/><path class="cls-2" d="M144.56 142.95c2.75-2.75 5.8-5.09 9.07-6.98h-39.67v8.76h28.92c.54-.59 1.08-1.18 1.67-1.77ZM145.94 112.6h35.66v8.76h-35.66zM113.96 160.56v8.76h17.9c.34-2.98.96-5.9 1.92-8.76h-19.82ZM113.96 193.91h22.18a43.93 43.93 0 0 1-3.22-8.76h-18.96v8.76ZM224.34 212.91s-10.91-9.54-13.52-12.14c-3.83-3.81-5.36-5.65-4.01-8.74 5.91-12.06 3.87-27.02-6.16-37.05-12.61-12.61-33.05-12.61-45.66 0s-12.61 33.05 0 45.66c10.02 10.02 25 12.07 37.05 6.16 3.1-1.35 4.94.18 8.74 4.01 2.61 2.61 12.14 13.51 12.14 13.51 4.94 4.95 8.75 1.9 11.04-.38 2.28-2.28 5.32-6.09.38-11.03Zm-33.3-21.88c-7.3 7.3-19.14 7.3-26.44 0-7.3-7.3-7.3-19.14 0-26.44 7.3-7.3 19.14-7.3 26.44 0 7.3 7.3 7.3 19.14 0 26.44Z"/></svg>