<svg id="_レイヤー_1" data-name="レイヤー 1" xmlns="http://www.w3.org/2000/svg" viewBox="0 0 300 300"><defs><style>.cls-2{stroke-width:0;fill:#fff}</style></defs><circle cx="150" cy="150" r="141.25" style="stroke-width:0;fill:#725f4e"/><path class="cls-2" d="m120.57 114.39.26.15 18.7.17.27-.14A19.731 19.731 0 0 0 150 97.51c.06-6.73-2.19-12.47-4.37-18.01-1.49-3.79-3.03-7.71-3.83-11.94-.67-3.49-.53-5-.53-5.01l.18-1.49-1.49.23c-6.9 1.09-14.14 5.58-19.86 12.32-6 7.08-9.35 15.44-9.42 23.55a19.69 19.69 0 0 0 9.89 17.23Zm-4.27-23c.11-.26.2-.54.3-.85 1.05-3.4 4.6-4.7 5.31.24.72 4.95 4.75 3.89 5.7-.33 1.18-5.31 4.4-3.95 4.95-1.85.55 2.09-.05 5.88 2.8 6.1 1.71.13 2.23-2.15 3.27-5.47.6-1.91 3.81-3.64 5.69 1.67.49 2.12.8 4.28.78 6.56-.04 4.96-2.67 9.67-6.86 12.33l-16.02-.14c-4.14-2.74-6.68-7.49-6.63-12.45.02-1.9.26-3.85.72-5.8ZM134.45 120.12l-8.63-.08a9.703 9.703 0 0 0-7.05 2.96 9.72 9.72 0 0 0-2.71 7.15l.52 12.02 26.71.24.74-12.01c.16-2.65-.77-5.25-2.58-7.19a9.64 9.64 0 0 0-7-3.08ZM119.87 218.17c.21 4.97 4.29 8.91 9.26 8.95h.07c4.98.04 9.12-3.82 9.43-8.79l4.4-71.66-26.27-.23 3.11 71.73ZM212.5 122.43c-7.22-10.66-17.4-19.14-29.41-24.21a66.766 66.766 0 0 0-26-5.24c-.62 0-1.24 0-1.87.02.18 1.46.29 2.98.27 4.54-.09 8.38-4.36 16.15-11.28 20.75.44.37.86.75 1.24 1.17.11.11.22.24.29.35a8.525 8.525 0 0 1 3.59 6.98c0 .18 0 .37-.02.53.18 1.12.26 2.25.18 3.4l-.64 10.51-2.27 36.83c.82.38 1.61.86 2.38 1.37 3.5 2.36 6.26 5.69 7.93 9.61 1.1 2.62 1.7 5.49 1.7 8.51.02 1.23-.18 2.49-.51 3.88-.31 1.39-.73 2.89-1.12 4.56-.35 1.56-.51 3.06-.51 4.49-.02 2.64.6 5.05 1.74 7.05 1.12 2.02 2.71 3.57 4.45 4.67 1.17.73 2.4 1.28 3.64 1.67 1.65.51 3.33.75 4.96.75 1.54 0 3.02-.2 4.43-.64 13.82-4.28 25.86-12.69 34.46-23.84 8.61-11.17 13.75-25.12 13.75-40.34 0-13.83-4.21-26.72-11.41-37.37Zm-46.86 8.64c-4.27 0-7.74-3.48-7.74-7.75s3.48-7.74 7.74-7.74 7.75 3.46 7.75 7.74-3.46 7.75-7.75 7.75Zm19.04-3.19c3.81 0 6.9 3.08 6.9 6.88s-3.09 6.9-6.9 6.9-6.9-3.1-6.9-6.9 3.09-6.88 6.9-6.88Zm12.36 57.94c-.81 1.88-2.12 3.5-3.79 4.61-1.68 1.14-3.72 1.8-5.88 1.8-1.45 0-2.82-.29-4.08-.82-1.89-.79-3.48-2.12-4.62-3.79-1.14-1.68-1.79-3.7-1.79-5.88 0-1.43.29-2.82.82-4.08a10.6 10.6 0 0 1 3.81-4.62c1.67-1.12 3.7-1.79 5.86-1.78 1.45 0 2.84.29 4.08.82 1.89.79 3.48 2.12 4.61 3.79 1.14 1.67 1.8 3.7 1.8 5.86 0 1.45-.29 2.84-.82 4.08Zm-3-27.41c-2.97 0-5.38-2.42-5.38-5.4s2.42-5.38 5.38-5.38 5.4 2.42 5.4 5.38-2.42 5.4-5.4 5.4ZM116.07 118.04a25.507 25.507 0 0 1-5.88-5.66l-.18.18c-12.03 12.09-19.48 28.79-19.74 47.19v.68c0 4.91.73 9.12 2.05 12.67 1.32 3.55 3.24 6.43 5.55 8.57 1.54 1.45 3.24 2.56 5.02 3.35 2.34 1.06 4.82 1.56 7.21 1.56.99 0 1.94-.09 2.89-.26l-1.68-38.71-.75-17.23c-.16-4.14 1.37-8.22 4.25-11.19.4-.42.82-.8 1.26-1.15Z"/></svg>