<?xml version="1.0" encoding="UTF-8"?>
<svg id="_レイヤー_1" data-name="レイヤー 1" xmlns="http://www.w3.org/2000/svg" viewBox="0 0 300 300">
  <defs>
    <style>
      .cls-1 {
        fill: #725f4e;
      }

      .cls-1, .cls-2 {
        stroke-width: 0px;
      }

      .cls-2 {
        fill: #fff;
      }
    </style>
  </defs>
  <circle class="cls-1" cx="150" cy="150" r="141.25"/>
  <g>
    <path class="cls-2" d="m155.73,88.3c7.18,0,13-5.82,13-13s-5.82-13-13-13-13,5.82-13,13,5.82,13,13,13Z"/>
    <polygon class="cls-2" points="185.37 208.41 154.15 208.41 154.15 185.68 122.94 185.68 122.94 162.94 91.72 162.94 91.72 140.2 65.13 140.2 65.13 149.47 82.45 149.47 82.45 172.21 113.67 172.21 113.67 194.95 144.88 194.95 144.88 217.68 176.11 217.68 176.11 240.42 216 240.42 216 231.16 185.37 231.15 185.37 208.41"/>
    <path class="cls-2" d="m208.1,117.51c-1.28-5.37-7.27-12.41-9.08-15.31-.97-1.55-2.45-2.72-4.19-3.3l-16.31-7.61c-5.84-2.72-12.67-2.29-18.13,1.14l-25.07,15.79-14.68-6.89c-2.28-1.28-5.16-.52-6.51,1.71l-.19.3c-.67,1.11-.87,2.43-.56,3.69.31,1.25,1.11,2.33,2.22,3l17.49,10.44c2.17,1.3,4.83,1.53,7.2.64l10.36-5.58,4.91,19.81-16.33-.08c-2.75,0-5.36,1.21-7.12,3.33-1.75,2.12-2.47,4.91-1.94,7.61l5.49,28.28c.61,3.13,3.58,5.23,6.73,4.76l.24-.03c3.12-.47,5.34-3.29,5.05-6.44l-1.86-20.26,24.64.57c3.54.08,6.92-1.45,9.2-4.15,2.28-2.7,3.21-6.3,2.53-9.77l-.63-3.2-5.07-28.6,13.06,1.93s9.47,10.98,9.55,11.08c1.39,1.61,3.61,3.2,5.83,3.13,3.21-.09,3.78-3.45,3.17-5.98Z"/>
    <path class="cls-2" d="m192.84,196.18c2.19,2.29,5.8,2.42,8.15.31l.17-.15c2.35-2.11,2.6-5.7.58-8.12l-13.46-18.07-3.77-19.13c-.29.42-.59.83-.92,1.23-3.2,3.8-7.9,5.99-12.87,5.99l-2.29-.05,4.49,14.54c1.16,2.4,2.67,4.63,4.48,6.6l15.43,16.87Z"/>
  </g>
</svg>