<?xml version="1.0" encoding="UTF-8"?>
<svg id="object" xmlns="http://www.w3.org/2000/svg" viewBox="0 0 377.57 312.33">
  <defs>
    <style>
      .cls-1 {
        stroke: #725f4e;
        stroke-linecap: round;
        stroke-linejoin: round;
        stroke-width: .98px;
      }

      .cls-1, .cls-2 {
        fill: #725f4e;
      }

      .cls-2 {
        stroke-width: 0px;
      }
    </style>
  </defs>
  <g>
    <path class="cls-1" d="m33.07,193.44c7.97,0,11.49,5.72,11.49,11.49s-3.52,11.39-11.49,11.39h-7.25v12.31h-7.1v-35.18h14.35Zm-.36,16.65c3.42,0,4.7-2.66,4.7-5.16s-1.28-5.21-4.6-5.21h-7v10.36h6.89Z"/>
    <path class="cls-1" d="m52.88,216.72c0-7.56,6.03-12.56,12.82-12.56s12.82,5,12.82,12.56-6.03,12.51-12.82,12.51-12.82-5-12.82-12.51Zm18.84,0c0-3.73-2.71-6.33-6.03-6.33s-6.03,2.6-6.03,6.33,2.71,6.28,6.03,6.28,6.03-2.6,6.03-6.28Z"/>
    <path class="cls-1" d="m107.3,204.93l-1.53,6.38c-1.43-.77-2.6-.87-3.42-.87-3.42,0-5.77,3.22-5.77,10.01v8.17h-6.69v-23.85h6.64v5.11c1.33-3.98,4.03-5.72,7-5.72,1.28,0,2.71.2,3.78.77Z"/>
    <path class="cls-1" d="m135.13,204.77v5.21h-5.05v18.64h-6.69v-18.64h-4.34v-5.21h4.34v-8.68h6.69v8.68h5.05Z"/>
    <path class="cls-1" d="m147.63,216.72c0-7.56,6.03-12.56,12.82-12.56s12.82,5,12.82,12.56-6.03,12.51-12.82,12.51-12.82-5-12.82-12.51Zm18.84,0c0-3.73-2.71-6.33-6.03-6.33s-6.03,2.6-6.03,6.33,2.71,6.28,6.03,6.28,6.03-2.6,6.03-6.28Z"/>
    <path class="cls-1" d="m202.42,198.03c-3.83,0-5.06,2.09-5.11,4.95v1.79h5.21v5.21h-5.21v18.64h-6.69v-18.64h-4.49v-5.21h4.49v-1.74c0-7.15,3.68-11.23,10.47-11.23h2.86v6.23h-1.53Z"/>
    <path class="cls-1" d="m215.03,216.72c0-7.56,6.03-12.56,12.82-12.56s12.82,5,12.82,12.56-6.03,12.51-12.82,12.51-12.82-5-12.82-12.51Zm18.84,0c0-3.73-2.71-6.33-6.02-6.33s-6.02,2.6-6.02,6.33,2.71,6.28,6.02,6.28,6.02-2.6,6.02-6.28Z"/>
    <path class="cls-1" d="m256.13,228.62v-36.81h6.69v36.81h-6.69Z"/>
    <path class="cls-1" d="m278.85,196.55c0-2.25,1.94-3.98,4.24-3.98s4.24,1.74,4.24,3.98-1.89,4.03-4.24,4.03-4.24-1.79-4.24-4.03Zm.92,32.07v-23.85h6.69v23.85h-6.69Z"/>
    <path class="cls-1" d="m301.92,216.72c0-7.56,6.03-12.56,12.82-12.56s12.82,5,12.82,12.56-6.03,12.51-12.82,12.51-12.82-5-12.82-12.51Zm18.84,0c0-3.73-2.71-6.33-6.03-6.33s-6.03,2.6-6.03,6.33,2.71,6.28,6.03,6.28,6.03-2.6,6.03-6.28Z"/>
  </g>
  <g>
    <path class="cls-2" d="m25.09,298.42h6.39v3.39h-12.15v-1.96l7.05-8.46c.74-.91,1.24-1.85,1.24-2.45,0-1.21-.99-2.07-2.4-2.07-1.6,0-2.51,1.05-2.73,2.62l-3.28-.55c.44-3.22,2.53-5.43,6.14-5.43s5.95,2.18,5.95,5.45c0,1.74-.83,3.28-1.98,4.57l-4.24,4.88Z"/>
    <path class="cls-2" d="m40.93,292.83c0-5.21,1.49-9.31,6.75-9.31s6.67,4.1,6.67,9.31-1.46,9.31-6.67,9.31-6.75-4.19-6.75-9.31Zm9.73,0c0-3.33-.66-5.95-2.98-5.95s-3.09,2.62-3.09,5.95.72,5.95,3.09,5.95,2.98-2.67,2.98-5.95Z"/>
    <path class="cls-2" d="m70.58,283.52h.3v18.29h-3.64v-13.39l-4.16,1.6v-3.39l7.49-3.11Z"/>
    <path class="cls-2" d="m80.83,283.76h13.06v.36l-8.07,17.69h-4.19l6.75-14.68h-7.55v-3.36Z"/>
    <path class="cls-2" d="m101.22,296.82v-3.2h9.7v3.2h-9.7Z"/>
    <path class="cls-2" d="m125.96,298.42h6.39v3.39h-12.15v-1.96l7.05-8.46c.74-.91,1.24-1.85,1.24-2.45,0-1.21-.99-2.07-2.4-2.07-1.6,0-2.51,1.05-2.73,2.62l-3.28-.55c.44-3.22,2.53-5.43,6.14-5.43s5.95,2.18,5.95,5.45c0,1.74-.83,3.28-1.98,4.57l-4.24,4.88Z"/>
    <path class="cls-2" d="m141.81,292.83c0-5.21,1.49-9.31,6.75-9.31s6.67,4.1,6.67,9.31-1.46,9.31-6.67,9.31-6.75-4.19-6.75-9.31Zm9.73,0c0-3.33-.66-5.95-2.98-5.95s-3.09,2.62-3.09,5.95.72,5.95,3.09,5.95,2.98-2.67,2.98-5.95Z"/>
    <path class="cls-2" d="m168.61,298.42h6.39v3.39h-12.15v-1.96l7.05-8.46c.74-.91,1.24-1.85,1.24-2.45,0-1.21-.99-2.07-2.4-2.07-1.6,0-2.51,1.05-2.73,2.62l-3.28-.55c.44-3.22,2.53-5.43,6.14-5.43s5.95,2.18,5.95,5.45c0,1.74-.83,3.28-1.98,4.57l-4.24,4.88Z"/>
    <path class="cls-2" d="m195.15,295.14v3.22h-2.76v3.44h-3.66v-3.44h-8.71v-1.07l10.22-13.53h2.15v11.38h2.76Zm-9.97,0h3.55v-4.77l-3.55,4.77Z"/>
  </g>
  <g>
    <path class="cls-2" d="m50.27,17.64h11.23v55.68h-11.23v-22.63h-20.77v22.63h-11.23V17.64h11.23v22.95h20.77v-22.95Z"/>
    <path class="cls-2" d="m109.01,35.58h10.59v37.74h-10.59v-5.41c-2.51,3.88-7.35,6.38-12.45,6.38-10.42,0-18.18-8.08-18.18-19.8s7.6-19.88,18.43-19.88c4.85,0,9.7,2.1,12.2,5.98v-5.01Zm-.32,18.91c0-5.74-4.61-10.02-9.86-10.02s-9.62,4.53-9.62,10.02,4.12,9.94,9.7,9.94,9.78-4.53,9.78-9.94Z"/>
    <path class="cls-2" d="m164.29,35.58h11.39l-23.27,56.25h-11.31l8.97-22.06-14.95-34.18h11.64l8.89,21.82,8.65-21.82Z"/>
    <path class="cls-2" d="m218.43,35.58h10.59v37.74h-10.59v-5.41c-2.51,3.88-7.35,6.38-12.45,6.38-10.42,0-18.18-8.08-18.18-19.8s7.6-19.88,18.43-19.88c4.85,0,9.7,2.1,12.2,5.98v-5.01Zm-.32,18.91c0-5.74-4.61-10.02-9.86-10.02s-9.62,4.53-9.62,10.02,4.12,9.94,9.7,9.94,9.78-4.53,9.78-9.94Z"/>
    <path class="cls-2" d="m247.03,61.44h9.94c0,2.18,1.86,4.53,5.58,4.53,3.07,0,5.41-1.54,5.41-3.72,0-1.62-1.29-2.43-4.12-3.15l-5.01-1.21c-9.7-2.59-10.99-8-10.99-11.96,0-5.82,6.06-11.31,14.79-11.31,6.87,0,14.95,3.31,14.87,12.28h-10.1c0-2.59-2.1-3.96-4.61-3.96s-4.36,1.37-4.36,3.31c0,1.78,1.62,2.67,3.72,3.23l6.22,1.62c9.05,2.43,10.18,8.08,10.18,11.15,0,7.92-8.08,12.04-15.84,12.04s-15.6-4.53-15.68-12.85Z"/>
    <path class="cls-2" d="m333.42,52.64v20.69h-10.59v-20.04c0-5.9-3.56-8.65-7.19-8.65s-8.49,2.1-8.49,8.89v19.8h-10.59V15.06h10.59v26.51c1.62-4.85,7.68-6.95,11.31-6.95,9.86,0,15.03,6.71,14.95,18.02Z"/>
    <path class="cls-2" d="m350.22,22.57c0-3.56,3.07-6.3,6.71-6.3s6.71,2.75,6.71,6.3-2.99,6.38-6.71,6.38-6.71-2.83-6.71-6.38Zm1.45,50.75v-37.74h10.59v37.74h-10.59Z"/>
    <path class="cls-2" d="m15.11,138.39h11.23c.08,3.96,3.96,7.27,9.13,7.27s8.32-2.75,8.32-6.71c0-3.07-2.26-5.25-7.03-6.71l-6.79-1.94c-12.2-3.23-14.39-10.59-14.39-15.6,0-9.94,8.57-16.81,19.23-16.81s18.59,6.38,18.59,16.97h-11.23c0-3.96-2.75-7.03-7.6-7.03-4.36,0-7.68,2.91-7.68,6.63,0,1.37.4,4.2,6.22,5.9l6.22,1.78c8.41,2.51,15.76,6.79,15.76,16.24,0,11.07-9.45,17.13-19.96,17.13-11.88,0-20.04-7.35-20.04-17.13Z"/>
    <path class="cls-2" d="m98.67,116.81h10.59v37.74h-10.59v-5.41c-2.51,3.88-7.35,6.38-12.45,6.38-10.42,0-18.18-8.08-18.18-19.8s7.6-19.88,18.43-19.88c4.85,0,9.7,2.1,12.2,5.98v-5.01Zm-.32,18.91c0-5.74-4.61-10.02-9.86-10.02s-9.62,4.53-9.62,10.02,4.12,9.94,9.7,9.94,9.78-4.53,9.78-9.94Z"/>
    <path class="cls-2" d="m161.94,139.11h-28.37c1.13,4.44,4.69,7.03,9.7,7.03,3.88,0,7.6-1.78,9.94-4.45l6.14,6.22c-3.56,4.77-10.1,7.6-16.73,7.6-11.64,0-20.12-8.16-20.12-19.8s9.29-19.88,20.04-19.88,19.64,7.68,19.64,19.23c0,1.05-.08,2.34-.24,4.04Zm-10.43-6.87c-.32-4.45-3.96-7.27-8.73-7.27-4.36,0-8.08,2.18-9.21,7.27h17.94Z"/>
  </g>
</svg>