<?xml version="1.0" encoding="UTF-8"?>
<svg id="object" xmlns="http://www.w3.org/2000/svg" viewBox="0 0 430.96 403.2">
  <defs>
    <style>
      .cls-1 {
        fill: #725f4e;
        stroke-width: 0px;
      }
    </style>
  </defs>
  <path class="cls-1" d="m13.46,196.95c-.28,0-.5.22-.5.5v35.75c0,.28.22.5.5.5h7.21c.28,0,.5-.22.5-.5v-12h6.87c8.41,0,12.17-6.06,12.17-12.07s-3.76-12.17-12.17-12.17h-14.58Zm7.71,7.38h6.61c3.07,0,4.17,2.48,4.17,4.79s-1.12,4.74-4.27,4.74h-6.5v-9.53Z"/>
  <path class="cls-1" d="m52.86,221.11c0,7.41,5.94,13.21,13.52,13.21s13.52-5.8,13.52-13.21-5.81-13.26-13.52-13.26-13.52,5.7-13.52,13.26Zm13.52-5.93c3.21,0,5.62,2.55,5.62,5.93s-2.42,5.88-5.62,5.88-5.62-2.53-5.62-5.88,2.42-5.93,5.62-5.93Z"/>
  <path class="cls-1" d="m112.06,216.05c.14.07.3.08.44.02.14-.06.25-.19.28-.34l1.56-6.49c.05-.22-.05-.45-.25-.56-1.39-.73-3.15-.83-4.07-.83-2.8,0-5.12,1.42-6.61,3.97v-2.85c0-.28-.22-.5-.5-.5h-6.74c-.28,0-.5.22-.5.5v24.23c0,.28.22.5.5.5h6.8c.28,0,.5-.22.5-.5v-8.3c0-6.14,1.95-9.67,5.36-9.67.73,0,1.86.08,3.24.82Z"/>
  <path class="cls-1" d="m147.32,208.47h-4.64v-8.32c0-.28-.22-.5-.5-.5h-6.8c-.28,0-.5.22-.5.5v8.32h-3.91c-.28,0-.5.22-.5.5v5.29c0,.28.22.5.5.5h3.91v18.44c0,.28.22.5.5.5h6.8c.28,0,.5-.22.5-.5v-18.44h4.64c.28,0,.5-.22.5-.5v-5.29c0-.28-.22-.5-.5-.5Z"/>
  <path class="cls-1" d="m191.76,221.11c0-7.56-5.81-13.26-13.52-13.26s-13.52,5.7-13.52,13.26,5.94,13.21,13.52,13.21,13.52-5.8,13.52-13.21Zm-13.52,5.88c-3.21,0-5.62-2.53-5.62-5.88s2.42-5.93,5.62-5.93,5.62,2.55,5.62,5.93-2.42,5.88-5.62,5.88Z"/>
  <path class="cls-1" d="m227.63,195.29h-2.91c-7.08,0-11.13,4.34-11.13,11.91v1.26h-4.07c-.28,0-.5.22-.5.5v5.29c0,.28.22.5.5.5h4.07v18.44c0,.28.22.5.5.5h6.8c.28,0,.5-.22.5-.5v-18.44h4.79c.28,0,.5-.22.5-.5v-5.29c0-.28-.22-.5-.5-.5h-4.79v-1.31c.05-3.1,1.54-4.54,4.69-4.54h1.56c.28,0,.5-.22.5-.5v-6.33c0-.28-.22-.5-.5-.5Z"/>
  <path class="cls-1" d="m257.1,207.85c-7.71,0-13.52,5.7-13.52,13.26s5.94,13.21,13.52,13.21,13.52-5.8,13.52-13.21-5.81-13.26-13.52-13.26Zm0,19.14c-3.2,0-5.62-2.53-5.62-5.88s2.42-5.93,5.62-5.93,5.62,2.55,5.62,5.93-2.42,5.88-5.62,5.88Z"/>
  <rect class="cls-1" x="290.54" y="195.29" width="7.8" height="38.41" rx=".5" ry=".5"/>
  <rect class="cls-1" x="319.75" y="208.47" width="7.8" height="25.23" rx=".5" ry=".5"/>
  <path class="cls-1" d="m323.62,196.07c-2.65,0-4.81,2.04-4.81,4.55s2.16,4.6,4.81,4.6,4.81-2.06,4.81-4.6-2.11-4.55-4.81-4.55Z"/>
  <path class="cls-1" d="m360.97,207.85c-7.71,0-13.52,5.7-13.52,13.26s5.94,13.21,13.52,13.21,13.52-5.8,13.52-13.21-5.81-13.26-13.52-13.26Zm0,19.14c-3.21,0-5.62-2.53-5.62-5.88s2.42-5.93,5.62-5.93,5.62,2.55,5.62,5.93-2.42,5.88-5.62,5.88Z"/>
  <path class="cls-1" d="m20.55,387.74c1.18-1.32,2.02-2.88,2.02-4.65,0-3.33-2.38-5.54-6.05-5.54s-5.8,2.24-6.24,5.52l3.33.56c.22-1.6,1.15-2.66,2.77-2.66,1.43,0,2.44.87,2.44,2.1,0,.62-.5,1.57-1.26,2.49l-7.17,8.6v1.99h12.35v-3.44h-6.5l4.31-4.96Z"/>
  <path class="cls-1" d="m42.56,377.55c-5.35,0-6.86,4.17-6.86,9.46s1.51,9.46,6.86,9.46,6.78-4.26,6.78-9.46-1.48-9.46-6.78-9.46Zm0,15.51c-2.41,0-3.13-2.72-3.13-6.05s.73-6.05,3.13-6.05,3.02,2.66,3.02,6.05-.67,6.05-3.02,6.05Z"/>
  <polygon class="cls-1" points="61.57 380.72 61.57 384.16 65.8 382.54 65.8 396.14 69.49 396.14 69.49 377.55 69.19 377.55 61.57 380.72"/>
  <polygon class="cls-1" points="82.96 381.22 90.63 381.22 83.77 396.14 88.03 396.14 96.23 378.17 96.23 377.8 82.96 377.8 82.96 381.22"/>
  <rect class="cls-1" x="107.04" y="387.83" width="9.86" height="3.25"/>
  <path class="cls-1" d="m139.86,387.74c1.18-1.32,2.02-2.88,2.02-4.65,0-3.33-2.38-5.54-6.05-5.54s-5.79,2.24-6.24,5.52l3.33.56c.22-1.6,1.15-2.66,2.77-2.66,1.43,0,2.44.87,2.44,2.1,0,.62-.5,1.57-1.26,2.49l-7.17,8.6v1.99h12.35v-3.44h-6.5l4.31-4.96Z"/>
  <path class="cls-1" d="m161.87,377.55c-5.35,0-6.86,4.17-6.86,9.46s1.51,9.46,6.86,9.46,6.78-4.26,6.78-9.46-1.48-9.46-6.78-9.46Zm0,15.51c-2.41,0-3.14-2.72-3.14-6.05s.73-6.05,3.14-6.05,3.02,2.66,3.02,6.05-.67,6.05-3.02,6.05Z"/>
  <path class="cls-1" d="m189.92,387.74c1.18-1.32,2.02-2.88,2.02-4.65,0-3.33-2.38-5.54-6.05-5.54s-5.8,2.24-6.24,5.52l3.33.56c.22-1.6,1.15-2.66,2.77-2.66,1.43,0,2.44.87,2.44,2.1,0,.62-.5,1.57-1.26,2.49l-7.17,8.6v1.99h12.35v-3.44h-6.5l4.31-4.96Z"/>
  <path class="cls-1" d="m213.13,377.8h-2.18l-10.39,13.75v1.09h8.85v3.5h3.72v-3.5h2.8v-3.28h-2.8v-11.56Zm-3.72,11.56h-3.61l3.61-4.84v4.84Z"/>
  <polygon class="cls-1" points="27.41 45.39 48.52 45.39 48.52 68.38 59.93 68.38 59.93 11.8 48.52 11.8 48.52 35.12 27.41 35.12 27.41 11.8 16 11.8 16 68.38 27.41 68.38 27.41 45.39"/>
  <path class="cls-1" d="m116.43,35.12c-2.55-3.94-7.47-6.08-12.4-6.08-11,0-18.72,8.29-18.72,20.2s7.88,20.12,18.48,20.12c5.17,0,10.1-2.54,12.65-6.49v5.5h10.76V30.03h-10.76v5.09Zm-10.27,24.23c-5.67,0-9.85-4.76-9.85-10.1s4.19-10.18,9.77-10.18,10.02,4.35,10.02,10.18c0,5.5-4.52,10.1-9.94,10.1Z"/>
  <polygon class="cls-1" points="172.02 52.21 162.99 30.03 151.16 30.03 166.36 64.77 157.24 87.19 168.74 87.19 192.39 30.03 180.81 30.03 172.02 52.21"/>
  <path class="cls-1" d="m244.04,68.38h10.76V30.03h-10.76v5.09c-2.54-3.94-7.47-6.08-12.4-6.08-11,0-18.72,8.29-18.72,20.2s7.88,20.12,18.48,20.12c5.17,0,10.1-2.54,12.65-6.49v5.5Zm-10.26-9.03c-5.67,0-9.85-4.76-9.85-10.1s4.19-10.18,9.77-10.18,10.02,4.35,10.02,10.18c0,5.5-4.52,10.1-9.94,10.1Z"/>
  <path class="cls-1" d="m303,45.8l-6.32-1.64c-2.14-.57-3.78-1.48-3.78-3.29,0-1.97,1.97-3.37,4.43-3.37s4.68,1.4,4.68,4.02h10.26c.08-9.12-8.13-12.48-15.11-12.48-8.87,0-15.03,5.58-15.03,11.5,0,4.02,1.31,9.53,11.17,12.15l5.09,1.23c2.87.74,4.19,1.56,4.19,3.2,0,2.22-2.38,3.78-5.5,3.78-3.78,0-5.67-2.38-5.67-4.6h-10.1c.08,8.46,7.88,13.06,15.93,13.06s16.1-4.19,16.1-12.24c0-3.12-1.15-8.87-10.35-11.33Z"/>
  <path class="cls-1" d="m362.13,29.05c-3.7,0-9.85,2.14-11.5,7.06V9.17h-10.76v59.21h10.76v-20.12c0-6.9,4.76-9.03,8.62-9.03s7.31,2.79,7.31,8.79v20.37h10.76v-21.02c.08-11.5-5.17-18.31-15.19-18.31Z"/>
  <rect class="cls-1" x="404.09" y="30.03" width="10.76" height="38.35"/>
  <path class="cls-1" d="m409.43,23.3c3.78,0,6.82-2.88,6.82-6.49s-3.04-6.4-6.82-6.4-6.82,2.79-6.82,6.4,3.12,6.49,6.82,6.49Z"/>
  <path class="cls-1" d="m33.49,149.89c-5.26,0-9.2-3.37-9.28-7.39h-11.42c0,9.94,8.29,17.41,20.37,17.41,10.68,0,20.28-6.16,20.28-17.41,0-9.61-7.47-13.96-16.01-16.51l-6.32-1.81c-5.91-1.72-6.32-4.6-6.32-6,0-3.78,3.37-6.73,7.8-6.73,4.93,0,7.72,3.12,7.72,7.14h11.42c0-10.76-8.21-17.25-18.89-17.25s-19.54,6.98-19.54,17.08c0,5.09,2.22,12.56,14.62,15.85l6.9,1.97c4.84,1.48,7.14,3.7,7.14,6.82,0,4.02-3.37,6.82-8.46,6.82Z"/>
  <path class="cls-1" d="m93.27,159.91c5.17,0,10.1-2.54,12.65-6.49v5.5h10.76v-38.35h-10.76v5.09c-2.55-3.94-7.47-6.08-12.4-6.08-11,0-18.72,8.29-18.72,20.2s7.88,20.12,18.48,20.12Zm2.3-30.3c5.34,0,10.02,4.35,10.02,10.18,0,5.5-4.52,10.1-9.94,10.1s-9.85-4.76-9.85-10.1,4.19-10.18,9.77-10.18Z"/>
  <path class="cls-1" d="m158.8,159.91c6.73,0,13.39-2.87,17-7.72l-6.24-6.32c-2.38,2.71-6.16,4.52-10.1,4.52-5.09,0-8.71-2.63-9.85-7.14h28.83c.16-1.72.25-3.04.25-4.11,0-11.74-8.95-19.54-19.96-19.54s-20.37,7.8-20.37,20.2,8.62,20.12,20.45,20.12Zm.16-31.04c4.84,0,8.54,2.87,8.87,7.39h-18.23c1.15-5.17,4.93-7.39,9.36-7.39Z"/>
  <path class="cls-1" d="m85.15,265.92c-.39-.39-1.02-.39-1.41,0L8.39,341.26c-.39.39-.39,1.02,0,1.41.2.2.45.29.71.29s.51-.1.71-.29l75.35-75.35c.39-.39.39-1.02,0-1.41Z"/>
</svg>